<svg data-v-0dd9719b="" version="1.0" xmlns="http://www.w3.org/2000/svg" xmlns:xlink="http://www.w3.org/1999/xlink" width="100%" height="100%" viewBox="0 0 340.000000 250.000000" preserveAspectRatio="xMidYMid meet" color-interpolation-filters="sRGB" style="margin: auto;"> <rect data-v-0dd9719b="" x="0" y="0" width="100%" height="100%" fill="#ffffff" fill-opacity="1" class="background"></rect> <rect data-v-0dd9719b="" x="0" y="0" width="100%" height="100%" fill="url(#watermark)" fill-opacity="1" class="watermarklayer"></rect> <g data-v-0dd9719b="" fill="#4cf37b" class="icon-text-wrapper icon-svg-group iconsvg" transform="translate(48.70500183105469,96.2337474822998)"><g class="iconsvg-imagesvg" transform="translate(0,7.362140655517578)" mask="url(#adc23451-79b1-4be9-94fa-8d03b3911fce)"><g><rect fill="#4cf37b" fill-opacity="0" stroke-width="2" x="0" y="0" width="60" height="42.80821917808219" class="image-rect"></rect> <svg filter="url(#colors6659803636)" x="0" y="0" width="60" height="42.80821917808219" filtersec="colorsf6693061747" class="image-svg-svg primary" style="overflow: visible;"><svg xmlns="http://www.w3.org/2000/svg" xmlns:xlink="http://www.w3.org/1999/xlink" xml:space="preserve" version="1.1" viewBox="4874.8125 12071.6025390625 50251.1875 35852.6484375" x="0px" y="0px" fill-rule="evenodd" clip-rule="evenodd"><defs></defs><g><path d="M16151 46221l1 3c367,122 767,217 1175,284 900,146 1813,145 2468,-37 746,-207 1502,-596 2239,-1143 2245,-1665 4284,-4749 5436,-8639 1161,-3924 1409,-8651 46,-13558 -845,-3044 -2311,-6158 -4563,-9195 -70,-94 -123,-169 -173,-238 -83,-117 -155,-217 -203,-272 -78,-88 104,132 71,161 -744,659 -1424,1495 -2042,2469 -28,121 -89,235 -185,327 -12,11 -24,22 -37,33 -1706,2844 -2928,6749 -3738,10815 -1615,8107 -1588,16746 -496,18992zm29454 -28596c-1254,1704 -601,7430 76,13358 539,4724 1092,9572 683,12794 2059,-4706 1017,-10926 80,-16523 -609,-3636 -1175,-7015 -838,-9629zm-444 27765c1020,-2754 350,-8625 -299,-14314 -695,-6090 -1366,-11975 125,-13988 -3474,1227 -6107,7084 -6107,14125 0,4039 879,7684 2299,10311 1080,1997 2461,3386 3982,3866zm1418 -28532c-615,2550 4,6244 677,10260 1056,6304 2241,13379 -908,18457 4119,-6 7457,-6434 7457,-14363 0,-4039 -879,-7684 -2299,-10311 -1300,-2404 -3037,-3927 -4927,-4044zm-236 -1328c2504,0 4738,1815 6324,4748 1519,2810 2459,6677 2459,10935 0,8662 -3932,15683 -8783,15683 -2504,0 -4738,-1815 -6324,-4748 -1519,-2810 -2459,-6677 -2459,-10935 0,-8662 3932,-15683 8783,-15683zm-32733 9289c16,-66 82,-108 149,-92 66,16 108,82 92,149 -611,2559 -864,5198 -772,7902 80,2352 420,4754 1011,7195 -23,-3765 363,-8483 1263,-13002 181,-908 382,-1808 605,-2693 -373,-1788 -52,-3540 244,-5156 282,-1540 540,-2946 97,-4035 -240,49 -477,130 -710,241 -13,7 -26,13 -40,19 -1240,606 -2374,2053 -3282,4075 -1291,2874 -2090,6862 -2090,11281 0,3539 511,6799 1387,9431 753,2261 1764,4046 2938,5122 -33,-168 -64,-344 -93,-528 -58,21 -123,-4 -152,-60 -1388,-2694 -2188,-5445 -2576,-8239 -387,-2791 -362,-5627 -99,-8495 6,-68 66,-118 134,-112 68,6 118,66 112,134 -261,2850 -287,5667 98,8439 371,2680 1126,5318 2420,7904 -125,-929 -206,-2032 -241,-3260 -754,-2806 -1184,-5562 -1275,-8254 -93,-2727 162,-5387 778,-7966zm3552 -9772c396,1236 134,2667 -151,4223 -152,830 -311,1699 -372,2580 673,-2159 1492,-4160 2470,-5852 -309,-271 -627,-489 -951,-649 -324,-160 -658,-262 -997,-301zm-7760 2511c-2657,4494 -3498,9896 -3123,14820 244,3197 1000,6184 2105,8583 1078,2341 2474,4103 4029,4921 427,224 867,376 1317,445 -1394,-1230 -2569,-3247 -3413,-5781 -922,-2770 -1460,-6174 -1460,-9844 0,-1306 68,-2578 197,-3800 -93,-2077 -152,-6114 348,-9344zm6357 29919c-1380,407 -2717,224 -3961,-430 -1820,-956 -3416,-2937 -4612,-5535 -1169,-2538 -1968,-5684 -2223,-9037 -484,-6352 977,-13483 5557,-18702l16 14c111,-190 231,-364 358,-519 656,-796 1488,-1120 2540,-756 607,211 1278,674 2020,1445 453,-164 921,-249 1401,-249 650,0 1282,158 1888,457 371,183 730,419 1075,704 600,-877 1252,-1644 1960,-2270 838,-742 1255,-648 1786,-48 102,116 189,238 291,380 51,72 107,150 157,218 2355,3175 3888,6436 4775,9628 1435,5165 1173,10144 -51,14280 -1234,4170 -3455,7501 -5915,9325 -867,643 -1768,1104 -2673,1355 -837,232 -1954,241 -3025,68 -467,-76 -930,-187 -1363,-329zm-1518 -32873c-473,-452 -882,-726 -1235,-848 -444,-154 -804,-6 -1096,348 -403,489 -712,1312 -949,2318 -286,1214 -455,2663 -549,4121 202,-584 420,-1138 654,-1659 864,-1923 1947,-3405 3176,-4281z"></path></g></svg></svg> <defs><filter id="colors6659803636"><feColorMatrix type="matrix" values="0 0 0 0 0.296875  0 0 0 0 0.94921875  0 0 0 0 0.48046875  0 0 0 1 0" class="icon-fecolormatrix"></feColorMatrix></filter> <filter id="colorsf6693061747"><feColorMatrix type="matrix" values="0 0 0 0 0.99609375  0 0 0 0 0.99609375  0 0 0 0 0.99609375  0 0 0 1 0" class="icon-fecolormatrix"></feColorMatrix></filter> <filter id="colorsb9578717891"><feColorMatrix type="matrix" values="0 0 0 0 0  0 0 0 0 0  0 0 0 0 0  0 0 0 1 0" class="icon-fecolormatrix"></feColorMatrix></filter></defs></g><rect v-gra="id" width="72" height="54.8082160949707" transform="translate(-6, -6)" style="pointer-events:none;" fill="url(#0FhNA6PuhK_IBMV-kn80v)"></rect></g> <g transform="translate(67,0)"><g data-gra="path-name" fill-rule="" class="tp-name iconsvg-namesvg" transform="translate(0,0)" fill="url(#1fe8f54f-4c27-43e8-a080-a96765818c09)"><g transform="scale(1)"><g><path d="M13.59-26.1L21.33-26.1Q23.45-28.48 25.29-31.54L25.29-31.54 17.68-31.54Q15.3-27.81 12.29-24.79L12.29-24.79 11.21-25.7Q13.5-28.13 15.5-30.96 17.5-33.8 18.9-36.77L18.9-36.77 20.25-36.18Q19.44-34.47 18.54-32.89L18.54-32.89 26.95-32.89 26.95-31.59Q26.01-30.06 25.04-28.69 24.07-27.31 22.99-26.1L22.99-26.1 28.98-26.1 28.98-12.15 13.59-12.15 13.59-26.1ZM11.29 3.73L10.53 2.34Q13 1.4 14.74 0.47 16.47-0.45 17.57-1.42 18.68-2.38 19.3-3.42 19.93-4.46 20.2-5.63L20.2-5.63 11.16-5.63 11.16-7.02 20.43-7.02Q20.52-7.92 20.56-8.89 20.61-9.86 20.61-11.03L20.61-11.03 22.14-11.03Q22.09-9.86 22.07-8.89 22.05-7.92 21.96-7.02L21.96-7.02 31.36-7.02 31.36-5.63 21.73-5.63 21.46-4.46Q22.27-4 23.31-3.35 24.34-2.7 25.43-2 26.5-1.3 27.52-0.56 28.53 0.18 29.29 0.81L29.29 0.81 28.39 2.02Q27.63 1.35 26.64 0.61 25.65-0.14 24.61-0.85 23.58-1.57 22.61-2.18 21.64-2.79 20.93-3.19L20.93-3.19Q20.43-2.29 19.66-1.44 18.9-0.58 17.75 0.25 16.61 1.08 15.01 1.93 13.41 2.79 11.29 3.73L11.29 3.73ZM30.6 4.23L30.33 2.38Q31.09 2.43 31.99 2.45 32.89 2.48 33.66 2.48L33.66 2.48Q34.56 2.48 35.05 2.36 35.55 2.25 35.8 2 36.05 1.75 36.09 1.33 36.13 0.9 36.13 0.18L36.13 0.18 36.13-20.07 30.38-20.07 30.38-21.6 42.48-21.6 42.48-20.07 37.62-20.07 37.62 0.54Q37.62 1.44 37.48 2.07 37.35 2.7 36.97 3.1 36.59 3.51 35.93 3.73 35.28 3.96 34.24 4.05L34.24 4.05Q33.34 4.14 32.42 4.18 31.5 4.23 30.6 4.23L30.6 4.23ZM2.29-9.22L0.99-10.17Q2.21-11.7 3.4-13.57 4.59-15.43 5.69-17.44 6.79-19.44 7.76-21.42 8.73-23.4 9.49-25.24L9.49-25.24 10.98-24.57Q10.26-22.95 9.49-21.38 8.73-19.8 7.92-18.22L7.92-18.22 7.92 5.08 6.43 5.08 6.43-15.57Q5.4-13.86 4.37-12.26 3.33-10.66 2.29-9.22L2.29-9.22ZM14.94-18.59L14.94-13.41 20.7-13.41 20.7-18.59 14.94-18.59ZM22.05-13.41L27.63-13.41 27.63-18.59 22.05-18.59 22.05-13.41ZM14.94-24.79L14.94-19.89 20.7-19.89 20.7-24.79 14.94-24.79ZM27.63-24.79L22.05-24.79 22.05-19.89 27.63-19.89 27.63-24.79ZM2.65-24.57L1.62-25.61Q4.05-27.77 6.37-30.6 8.69-33.44 10.35-36.41L10.35-36.41 11.65-35.64Q9.9-32.67 7.51-29.77 5.13-26.86 2.65-24.57L2.65-24.57ZM30.51-32.76L41.71-32.76 41.71-31.23 30.51-31.23 30.51-32.76ZM65.56-32.85L84.96-32.85 84.96 2.7 65.56 2.7 65.56-32.85ZM67.19 0.99L83.38 0.99 83.38-15.03 67.19-15.03 67.19 0.99ZM67.19-31.23L67.19-16.7 83.38-16.7 83.38-31.23 67.19-31.23ZM50.27-33.75L62.05-33.75 62.05-32.17Q61.25-29.25 60.21-26.35 59.17-23.45 58-20.93L58-20.93Q60.16-18.04 61.27-15.28 62.37-12.51 62.41-9.76L62.41-9.76Q62.41-8.1 62.14-7 61.88-5.89 61.25-5.22 60.62-4.54 59.58-4.18 58.55-3.82 57.06-3.69L57.06-3.69Q56.79-3.69 56.32-3.67 55.84-3.65 55.37-3.65 54.9-3.65 54.49-3.65 54.09-3.65 53.91-3.65L53.91-3.65 53.59-5.54Q53.77-5.54 54.23-5.51 54.67-5.49 55.15-5.47 55.62-5.44 56.05-5.42 56.48-5.4 56.7-5.4L56.7-5.4Q57.87-5.44 58.68-5.63 59.49-5.8 59.98-6.3 60.48-6.79 60.7-7.65 60.93-8.5 60.93-9.86L60.93-9.86Q60.93-12.15 59.87-14.83 58.81-17.5 56.43-20.65L56.43-20.65Q57.6-23.49 58.63-26.28 59.67-29.07 60.52-32.17L60.52-32.17 51.84-32.17 51.84 5.26 50.27 5.26 50.27-33.75ZM92.79 3.42L92.03 1.93Q94.72 0.9 97.4-0.4 100.08-1.71 102.64-3.42L102.64-3.42Q106.92-6.3 109.89-9.95L109.89-9.95 93.33-9.95 93.33-11.43 111.73-11.43 111.73-16.96 97.88-16.96 97.88-33.84 127.17-33.84 127.17-16.96 113.31-16.96 113.31-11.43 131.67-11.43 131.67-9.95 115.06-9.95Q118.35-5.89 123.05-2.92 127.75 0.04 132.97 1.75L132.97 1.75 132.25 3.28Q129.42 2.25 126.74 0.9 124.06-0.45 121.5-2.16L121.5-2.16Q116.41-5.58 113.31-9.86L113.31-9.86 113.31 5.26 111.73 5.26 111.73-9.9Q108.72-5.58 103.45-2.07L103.45-2.07Q98.1 1.44 92.79 3.42L92.79 3.42ZM99.45-24.75L99.45-18.45 111.73-18.45 111.73-24.75 99.45-24.75ZM113.31-18.45L125.59-18.45 125.59-24.75 113.31-24.75 113.31-18.45ZM99.45-32.35L99.45-26.19 111.73-26.19 111.73-32.35 99.45-32.35ZM125.59-32.35L113.31-32.35 113.31-26.19 125.59-26.19 125.59-32.35ZM142.16-23.94L156.69-23.94 156.69-29.65 138.6-29.65 138.6-31.05 156.69-31.05 156.69-36.95 158.31-36.95 158.31-31.05 176.44-31.05 176.44-29.65 158.31-29.65 158.31-23.94 172.89-23.94 172.89-22.54 142.16-22.54 142.16-23.94ZM138.42 5.63L137.7 4.14Q141.44 2.83 143.69 1.69 145.94 0.54 147.15-0.67L147.15-0.67Q148.37-1.98 148.75-3.51 149.13-5.04 149.13-7.2L149.13-7.2 149.13-11.07 164.75-11.07 164.75-1.4Q164.75-0.22 164.86 0.47 164.97 1.17 165.24 1.57 165.51 1.98 165.98 2.14 166.45 2.29 167.22 2.34L167.22 2.34Q167.49 2.38 168.1 2.41 168.7 2.43 169.38 2.43 170.06 2.43 170.69 2.41 171.31 2.38 171.68 2.34L171.68 2.34Q172.57 2.29 173.14 2.16 173.7 2.02 174.01 1.6 174.33 1.17 174.51 0.4 174.69-0.36 174.82-1.71L174.82-1.71 175.09-4.59 176.58-4.18 176.31-1.21Q176.13 0.36 175.84 1.35 175.55 2.34 175.05 2.88 174.56 3.42 173.75 3.65 172.94 3.87 171.72 3.96L171.72 3.96Q171.41 3.96 170.78 3.98 170.14 4 169.43 4 168.7 4 168.05 3.98 167.4 3.96 167.04 3.96L167.04 3.96Q165.96 3.92 165.22 3.65 164.47 3.38 164.03 2.79 163.57 2.21 163.37 1.21 163.17 0.22 163.17-1.3L163.17-1.3 163.17-9.45 150.71-9.45 150.71-6.75Q150.71-4.27 150.16-2.56 149.63-0.85 148.28 0.45L148.28 0.45Q146.93 1.84 144.59 3.06 142.25 4.27 138.42 5.63L138.42 5.63ZM139.77-18L175.19-18 175.19-9.22 173.61-9.22 173.61-16.56 141.34-16.56 141.34-9.27 139.77-9.27 139.77-18Z" transform="translate(-0.9900000095367432, 36.95000076293945)"></path></g> <!----> <!----> <!----> <!----> <!----> <!----> <!----></g></g> <g data-gra="path-slogan" fill-rule="" class="tp-slogan iconsvg-slogansvg" fill="#0a0619" transform="translate(5,48.58000183105469)"><rect x="0" height="1" y="3.9750003814697266" width="6.319999694824219"></rect> <rect height="1" y="3.9750003814697266" width="6.319999694824219" x="159.2699966430664"></rect> <g transform="translate(9.319999694824219,0)"><g transform="scale(1)"><path d="M2.06-5.06L6.56-5.06L6.56-8.58L7.73-8.58L7.73 0L6.56 0L6.56-3.98L2.06-3.98L2.06 0L0.89 0L0.89-8.58L2.06-8.58L2.06-5.06ZM10.83-1.03L15.98-1.03L15.98 0L9.66 0L9.66-8.58L15.89-8.58L15.89-7.59L10.83-7.59L10.83-4.92L15.52-4.92L15.52-3.89L10.83-3.89L10.83-1.03ZM18.89-8.58L23.20-1.64L23.20-8.58L24.33-8.58L24.33 0L23.02 0L18.66-6.94L18.61-6.94L18.61 0L17.48 0L17.48-8.58L18.89-8.58ZM32.53-3.61L29.91-3.61L29.91-4.59L33.66-4.59L33.66 0L32.91 0L32.63-1.08Q31.64 0.09 29.81 0.14L29.81 0.14Q28.08 0.14 27.14-0.75L27.14-0.75Q25.73-2.06 25.78-4.36L25.78-4.36Q26.11-8.63 29.86-8.81L29.86-8.81Q33.05-8.63 33.52-6L33.52-6L32.39-6Q31.92-7.78 29.81-7.83L29.81-7.83Q27.14-7.64 27-4.31L27-4.31Q27-0.75 29.86-0.75L29.86-0.75Q30.89-0.75 31.64-1.31L31.64-1.31Q32.58-2.06 32.53-3.61L32.53-3.61ZM42.38-8.58L39.14-3.47L39.14 0L37.97 0L37.97-3.47L34.73-8.58L36.09-8.58L38.53-4.45L41.02-8.58L42.38-8.58ZM49.08 0L48.23-2.48L44.77-2.48L43.88 0L42.70 0L45.94-8.58L47.25-8.58L50.34 0L49.08 0ZM46.50-7.31L45.14-3.52L47.81-3.52L46.55-7.31L46.50-7.31ZM52.78-8.58L57.09-1.64L57.09-8.58L58.22-8.58L58.22 0L56.91 0L52.55-6.94L52.50-6.94L52.50 0L51.38 0L51.38-8.58L52.78-8.58ZM66.42-3.61L63.80-3.61L63.80-4.59L67.55-4.59L67.55 0L66.80 0L66.52-1.08Q65.53 0.09 63.70 0.14L63.70 0.14Q61.97 0.14 61.03-0.75L61.03-0.75Q59.63-2.06 59.67-4.36L59.67-4.36Q60-8.63 63.75-8.81L63.75-8.81Q66.94-8.63 67.41-6L67.41-6L66.28-6Q65.81-7.78 63.70-7.83L63.70-7.83Q61.03-7.64 60.89-4.31L60.89-4.31Q60.89-0.75 63.75-0.75L63.75-0.75Q64.78-0.75 65.53-1.31L65.53-1.31Q66.47-2.06 66.42-3.61L66.42-3.61ZM78.19-3.89L73.97-3.89L73.97 0L72.80 0L72.80-8.58L78.75-8.58L78.75-7.59L73.97-7.59L73.97-4.92L78.19-4.92L78.19-3.89ZM84.05-3.70L81.23-3.70L81.23 0L80.06 0L80.06-8.58L84.05-8.58Q86.91-8.58 86.91-6.28L86.91-6.28Q86.91-4.88 85.69-4.22L85.69-4.22Q86.72-3.94 86.72-2.58L86.72-2.58L86.81-1.03Q86.77-0.38 87.23-0.19L87.23-0.19L87.23 0L85.78 0Q85.64-0.61 85.59-2.16L85.59-2.16Q85.64-3.70 84.05-3.70L84.05-3.70ZM84.14-7.64L81.23-7.64L81.23-4.69L83.95-4.69Q85.69-4.69 85.69-6.19L85.69-6.19Q85.69-7.64 84.14-7.64L84.14-7.64ZM94.22-3.19L94.22-8.58L95.39-8.58L95.39-3.05Q95.25 0.05 91.88 0.14L91.88 0.14Q88.73 0.05 88.59-2.86L88.59-2.86L88.59-8.58L89.77-8.58L89.77-3.19Q89.81-0.84 91.92-0.80L91.92-0.80Q94.22-0.84 94.22-3.19L94.22-3.19ZM97.36-8.58L98.53-8.58L98.53 0L97.36 0L97.36-8.58ZM102.70-7.59L99.80-7.59L99.80-8.58L106.73-8.58L106.73-7.59L103.83-7.59L103.83 0L102.70 0L102.70-7.59ZM117.38-6.09L117.38-6.09L116.30-6.09Q116.20-7.73 114.14-7.83L114.14-7.83Q112.22-7.78 112.22-6.33L112.22-6.33Q112.22-5.39 113.25-5.25L113.25-5.25L115.69-4.69Q117.61-4.22 117.61-2.34L117.61-2.34Q117.56 0.05 114.23 0.14L114.23 0.14Q112.41 0.14 111.66-0.61L111.66-0.61Q110.72-1.31 110.77-2.77L110.77-2.77L111.89-2.77Q111.94-0.80 114.23-0.75L114.23-0.75Q116.48-0.80 116.53-2.20L116.53-2.20Q116.72-3.38 114.66-3.75L114.66-3.75L112.88-4.13Q111.05-4.64 111.05-6.19L111.05-6.19Q111.19-8.72 114.05-8.81L114.05-8.81Q117.28-8.81 117.38-6.09ZM120.23-5.06L124.73-5.06L124.73-8.58L125.91-8.58L125.91 0L124.73 0L124.73-3.98L120.23-3.98L120.23 0L119.06 0L119.06-8.58L120.23-8.58L120.23-5.06ZM129-1.03L134.16-1.03L134.16 0L127.83 0L127.83-8.58L134.06-8.58L134.06-7.59L129-7.59L129-4.92L133.69-4.92L133.69-3.89L129-3.89L129-1.03ZM135.66-8.58L136.83-8.58L136.83-1.03L141.19-1.03L141.19 0L135.66 0L135.66-8.58ZM142.31-8.58L143.48-8.58L143.48-1.03L147.84-1.03L147.84 0L142.31 0L142.31-8.58Z" transform="translate(-0.890625, 8.8125)"></path></g></g></g></g></g><defs v-gra="od"><linearGradient x1="0" y1="1" x2="0" y2="0" id="1fe8f54f-4c27-43e8-a080-a96765818c09"><stop offset="0%" stop-color="#4cf37b"></stop><stop offset="50%" stop-color="#2340fe"></stop><stop offset="100%" stop-color="#f001ff"></stop></linearGradient><filter id="42443b3f1de60f6b6fd3b6a9844b4764" filterUnits="objectBoundingBox"><feColorMatrix type="matrix" values="0 0 0 0 0.99609375  0 0 0 0 0.99609375  0 0 0 0 0.99609375  0 0 0 1 0"></feColorMatrix></filter></defs><defs v-gra="id"><filter id="bedf7d37-16a6-456e-bd3d-84449f1de7af" filterUnits="userSpaceOnUse"><feColorMatrix type="matrix" values="0 0 0 0 0.99609375  0 0 0 0 0.99609375  0 0 0 0 0.99609375  0 0 0 1 0"></feColorMatrix></filter><linearGradient x1="0" y1="1" x2="0" y2="0" id="0FhNA6PuhK_IBMV-kn80v"><stop offset="0%" stop-color="#4cf37b"></stop><stop offset="50%" stop-color="#2340fe"></stop><stop offset="100%" stop-color="#f001ff"></stop></linearGradient><filter id="42443b3f1de60f6b6fd3b6a9844b4764" filterUnits="objectBoundingBox"><feColorMatrix type="matrix" values="0 0 0 0 0.99609375  0 0 0 0 0.99609375  0 0 0 0 0.99609375  0 0 0 1 0"></feColorMatrix></filter></defs><mask v-gra="im" id="adc23451-79b1-4be9-94fa-8d03b3911fce"><g class="iconsvg-imagesvg" filter="url(#bedf7d37-16a6-456e-bd3d-84449f1de7af)"><g><rect fill="#4cf37b" fill-opacity="0" stroke-width="2" x="0" y="0" width="60" height="42.80821917808219" class="image-rect"></rect> <svg x="0" y="0" width="60" height="42.80821917808219" filtersec="colorsf6693061747" class="image-svg-svg primary" style="overflow: visible;"><svg xmlns="http://www.w3.org/2000/svg" xmlns:xlink="http://www.w3.org/1999/xlink" xml:space="preserve" version="1.1" viewBox="4874.8125 12071.6025390625 50251.1875 35852.6484375" x="0px" y="0px" fill-rule="evenodd" clip-rule="evenodd"><defs></defs><g><path d="M16151 46221l1 3c367,122 767,217 1175,284 900,146 1813,145 2468,-37 746,-207 1502,-596 2239,-1143 2245,-1665 4284,-4749 5436,-8639 1161,-3924 1409,-8651 46,-13558 -845,-3044 -2311,-6158 -4563,-9195 -70,-94 -123,-169 -173,-238 -83,-117 -155,-217 -203,-272 -78,-88 104,132 71,161 -744,659 -1424,1495 -2042,2469 -28,121 -89,235 -185,327 -12,11 -24,22 -37,33 -1706,2844 -2928,6749 -3738,10815 -1615,8107 -1588,16746 -496,18992zm29454 -28596c-1254,1704 -601,7430 76,13358 539,4724 1092,9572 683,12794 2059,-4706 1017,-10926 80,-16523 -609,-3636 -1175,-7015 -838,-9629zm-444 27765c1020,-2754 350,-8625 -299,-14314 -695,-6090 -1366,-11975 125,-13988 -3474,1227 -6107,7084 -6107,14125 0,4039 879,7684 2299,10311 1080,1997 2461,3386 3982,3866zm1418 -28532c-615,2550 4,6244 677,10260 1056,6304 2241,13379 -908,18457 4119,-6 7457,-6434 7457,-14363 0,-4039 -879,-7684 -2299,-10311 -1300,-2404 -3037,-3927 -4927,-4044zm-236 -1328c2504,0 4738,1815 6324,4748 1519,2810 2459,6677 2459,10935 0,8662 -3932,15683 -8783,15683 -2504,0 -4738,-1815 -6324,-4748 -1519,-2810 -2459,-6677 -2459,-10935 0,-8662 3932,-15683 8783,-15683zm-32733 9289c16,-66 82,-108 149,-92 66,16 108,82 92,149 -611,2559 -864,5198 -772,7902 80,2352 420,4754 1011,7195 -23,-3765 363,-8483 1263,-13002 181,-908 382,-1808 605,-2693 -373,-1788 -52,-3540 244,-5156 282,-1540 540,-2946 97,-4035 -240,49 -477,130 -710,241 -13,7 -26,13 -40,19 -1240,606 -2374,2053 -3282,4075 -1291,2874 -2090,6862 -2090,11281 0,3539 511,6799 1387,9431 753,2261 1764,4046 2938,5122 -33,-168 -64,-344 -93,-528 -58,21 -123,-4 -152,-60 -1388,-2694 -2188,-5445 -2576,-8239 -387,-2791 -362,-5627 -99,-8495 6,-68 66,-118 134,-112 68,6 118,66 112,134 -261,2850 -287,5667 98,8439 371,2680 1126,5318 2420,7904 -125,-929 -206,-2032 -241,-3260 -754,-2806 -1184,-5562 -1275,-8254 -93,-2727 162,-5387 778,-7966zm3552 -9772c396,1236 134,2667 -151,4223 -152,830 -311,1699 -372,2580 673,-2159 1492,-4160 2470,-5852 -309,-271 -627,-489 -951,-649 -324,-160 -658,-262 -997,-301zm-7760 2511c-2657,4494 -3498,9896 -3123,14820 244,3197 1000,6184 2105,8583 1078,2341 2474,4103 4029,4921 427,224 867,376 1317,445 -1394,-1230 -2569,-3247 -3413,-5781 -922,-2770 -1460,-6174 -1460,-9844 0,-1306 68,-2578 197,-3800 -93,-2077 -152,-6114 348,-9344zm6357 29919c-1380,407 -2717,224 -3961,-430 -1820,-956 -3416,-2937 -4612,-5535 -1169,-2538 -1968,-5684 -2223,-9037 -484,-6352 977,-13483 5557,-18702l16 14c111,-190 231,-364 358,-519 656,-796 1488,-1120 2540,-756 607,211 1278,674 2020,1445 453,-164 921,-249 1401,-249 650,0 1282,158 1888,457 371,183 730,419 1075,704 600,-877 1252,-1644 1960,-2270 838,-742 1255,-648 1786,-48 102,116 189,238 291,380 51,72 107,150 157,218 2355,3175 3888,6436 4775,9628 1435,5165 1173,10144 -51,14280 -1234,4170 -3455,7501 -5915,9325 -867,643 -1768,1104 -2673,1355 -837,232 -1954,241 -3025,68 -467,-76 -930,-187 -1363,-329zm-1518 -32873c-473,-452 -882,-726 -1235,-848 -444,-154 -804,-6 -1096,348 -403,489 -712,1312 -949,2318 -286,1214 -455,2663 -549,4121 202,-584 420,-1138 654,-1659 864,-1923 1947,-3405 3176,-4281z"></path></g></svg></svg> <defs><filter id="colors6659803636"><feColorMatrix type="matrix" values="0 0 0 0 0.296875  0 0 0 0 0.94921875  0 0 0 0 0.48046875  0 0 0 1 0" class="icon-fecolormatrix"></feColorMatrix></filter> <filter id="colorsf6693061747"><feColorMatrix type="matrix" values="0 0 0 0 0.99609375  0 0 0 0 0.99609375  0 0 0 0 0.99609375  0 0 0 1 0" class="icon-fecolormatrix"></feColorMatrix></filter> <filter id="colorsb9578717891"><feColorMatrix type="matrix" values="0 0 0 0 0  0 0 0 0 0  0 0 0 0 0  0 0 0 1 0" class="icon-fecolormatrix"></feColorMatrix></filter></defs></g></g></mask></svg>